# xmcd CD database file
#
# Track frame offsets:
#	150
#	57110
#	141630
#	202480
#	230307
#	267787
#	292382
#	327415
#
# Disc length: 4580 seconds
#
# Revision: 0
# Processed by: cddbd v1.5.2PL0 Copyright (c) Steve Scherf et al.
# Submitted via: CDex 1.70beta2
#
DISCID=8a11e208
DTITLE=Don Miguel Ruiz - Les 4 Accords Toltèques #2
DYEAR=2003
DGENRE=New Age
TTITLE0=Troisième Accord - Ne faites pas de suppositions
TTITLE1=Quatrième Accrod: Faites toujours de votre mieux
TTITLE2=La Voie Toltèques de la liberté: Briser les vieux accords
TTITLE3=L'art de la transformation: Le rêve de l'attention seconde
TTITLE4=La discipline du guerrier: Contrôler votre comportement
TTITLE5=L'Initiatoin de la mort: Embrasser l'ange de la mort
TTITLE6=Le nouveau rêve: Le paradis sur terre
TTITLE7=Méditation - Prière
EXTD=YEAR: 2003
EXTT0=
EXTT1=
EXTT2=
EXTT3=
EXTT4=
EXTT5=
EXTT6=
EXTT7=
PLAYORDER=
